<svg width="16" height="16" viewBox="0 0 16 16" fill="none" xmlns="http://www.w3.org/2000/svg">
<path d="M13.4563 10.0094C12.8781 9.43853 12.1562 9.43853 11.5816 10.0094C11.1433 10.444 10.705 10.8786 10.2741 11.3206C10.1562 11.4422 10.0568 11.4679 9.91313 11.3869C9.62953 11.2322 9.32751 11.107 9.05496 10.9376C7.78427 10.1383 6.71984 9.11073 5.77695 7.95422C5.30919 7.37965 4.893 6.76456 4.60203 6.07213C4.5431 5.93217 4.55415 5.84009 4.66833 5.72592C5.10662 5.30235 5.53387 4.86774 5.96479 4.43313C6.56515 3.8291 6.56515 3.12193 5.96111 2.51421C5.61858 2.16799 5.27604 1.82915 4.93351 1.48293C4.57993 1.12935 4.23003 0.772081 3.87277 0.422182C3.29451 -0.14134 2.57261 -0.14134 1.99804 0.425865C1.55607 0.860477 1.1325 1.30614 0.68316 1.73338C0.266964 2.12748 0.0570248 2.60997 0.012827 3.17349C-0.0571528 4.0906 0.167519 4.95614 0.48427 5.79958C1.1325 7.54539 2.11959 9.096 3.31661 10.5177C4.93351 12.4403 6.86348 13.9614 9.12125 15.059C10.1378 15.5526 11.1912 15.9319 12.3366 15.9945C13.1248 16.0387 13.8099 15.8398 14.3587 15.2248C14.7344 14.8049 15.1579 14.4218 15.5557 14.0204C16.145 13.4237 16.1487 12.7018 15.5631 12.1125C14.8633 11.409 14.1598 10.7092 13.4563 10.0094Z" fill="white"/>
</svg>
