<svg width="30" height="30" viewBox="0 0 30 30" fill="none" xmlns="http://www.w3.org/2000/svg">
<path d="M28.2353 21.8381C28.2353 22.4184 28.0721 22.9564 27.8106 23.4297L19.4527 14.0785L27.72 6.84539C28.0416 7.35575 28.2353 7.95526 28.2353 8.6031V21.8381ZM15 15.7764L26.5036 5.71104C26.0316 5.45261 25.5 5.29413 24.9265 5.29413H5.07351C4.49938 5.29413 3.96763 5.45261 3.49748 5.71104L15 15.7764ZM18.2071 15.1675L15.5444 17.4988C15.3886 17.6345 15.1947 17.7022 15 17.7022C14.8053 17.7022 14.6113 17.6345 14.4556 17.4988L11.7922 15.1673L3.32863 24.6381C3.83594 24.9564 4.43048 25.1471 5.07346 25.1471H24.9265C25.5694 25.1471 26.1642 24.9564 26.6714 24.6381L18.2071 15.1675ZM2.28014 6.84534C1.9586 7.3557 1.76471 7.9552 1.76471 8.6031V21.8382C1.76471 22.4185 1.92717 22.9565 2.18964 23.4298L10.5465 14.0769L2.28014 6.84534Z" fill="white"/>
</svg>
