<svg width="19" height="25" viewBox="0 0 19 25" fill="none" xmlns="http://www.w3.org/2000/svg">
<path d="M17.7042 6.22228C17.6152 5.88876 17.4345 5.53339 17.3008 5.22225C15.7011 1.3778 12.2058 3.05176e-05 9.38351 3.05176e-05C5.60539 3.05176e-05 1.44422 2.53343 0.888672 7.75536V8.82223C0.888672 8.86675 0.904017 9.2667 0.925813 9.46677C1.23724 11.9554 3.20097 14.6003 4.66755 17.0889C6.24539 19.7553 7.88263 22.3782 9.5047 25C10.5049 23.289 11.5015 21.5556 12.4789 19.8889C12.7453 19.3998 13.0545 18.911 13.3212 18.4442C13.4989 18.1333 13.8385 17.8225 13.9936 17.5332C15.5714 14.6445 18.111 11.7335 18.111 8.86669V7.68898C18.1111 7.37819 17.7258 6.28929 17.7042 6.22228ZM9.45268 11.5779C8.3421 11.5779 7.12649 11.0226 6.52648 9.48903C6.43708 9.2449 6.44429 8.75567 6.44429 8.71086V8.02197C6.44429 6.06691 8.10432 5.17784 9.54847 5.17784C11.3264 5.17784 12.7014 6.60026 12.7014 8.37816C12.7014 10.156 11.2306 11.5779 9.45268 11.5779Z" fill="white"/>
</svg>
